# xmcd
#
# Track frame offsets: 
#        150
#        4015
#        22182
#        38848
#        58701
#        78465
#        98484
#        127692
#        144988
#        168783
#        193639
#        218453
#        241001
#        290180
#
# Disc length: 4320 seconds
#
# Revision: 1
# Processed by: cddbd v1.5.2PL0 Copyright (c) Steve Scherf et al.
# Submitted via: ExactAudioCopyFreeDBPlugin 1.0
#
DISCID=af10de0e
DTITLE=Rolling Stones - Live At The Tokyo Dome
DYEAR=2015
DGENRE=Rock
TTITLE0=Continental Drift
TTITLE1=Start Me Up
TTITLE2=Bitch
TTITLE3=Sad Sad Sad
TTITLE4=Harlem Shuffle
TTITLE5=Tumbling Dice
TTITLE6=Miss You
TTITLE7=Ruby Tuesday
TTITLE8=Almost Hear You Sigh
TTITLE9=Rock And A Hard Place
TTITLE10=Mixed Emotions
TTITLE11=Honky Tonk Women
TTITLE12=Midnight Rambler
TTITLE13=You Can't Always Get What You Want
EXTD=
EXTT0=
EXTT1=
EXTT2=
EXTT3=
EXTT4=
EXTT5=
EXTT6=
EXTT7=
EXTT8=
EXTT9=
EXTT10=
EXTT11=
EXTT12=
EXTT13=
PLAYORDER=
